<?xml version="1.0" standalone="no"?>
<!DOCTYPE svg PUBLIC "-//W3C//DTD SVG 20010904//EN"
 "http://www.w3.org/TR/2001/REC-SVG-20010904/DTD/svg10.dtd">
<svg version="1.0" xmlns="http://www.w3.org/2000/svg"
 width="500.000000pt" height="500.000000pt" viewBox="0 0 500.000000 500.000000"
 preserveAspectRatio="xMidYMid meet">
<metadata>
Created by potrace 1.14, written by Peter Selinger 2001-2017
</metadata>
<g transform="translate(0.000000,500.000000) scale(0.100000,-0.100000)"
fill="#000000" stroke="none">
<path d="M3390 3532 c-172 -13 -322 -132 -381 -303 -22 -63 -22 -75 -24 -579
0 -283 1 -521 3 -527 3 -10 48 -13 180 -13 l176 0 -31 33 c-62 65 -67 84 -67
282 l-1 180 228 0 228 0 -1 -174 c-2 -193 -12 -234 -70 -291 l-31 -30 186 0
185 0 0 528 c-1 511 -1 530 -22 588 -51 145 -156 247 -301 293 -35 12 -179 19
-257 13z m167 -331 c26 -12 52 -35 70 -61 61 -93 15 -233 -88 -269 -52 -18
-127 -6 -166 25 -55 45 -75 89 -71 156 9 128 136 203 255 149z"/>
<path d="M470 2918 c-1 -61 -1 -774 0 -800 0 -16 10 -18 76 -18 l76 0 -4 245
-3 245 25 -28 c14 -15 54 -61 90 -102 36 -41 70 -80 75 -86 6 -6 66 -74 134
-152 69 -78 126 -140 129 -138 3 4 5 690 3 837 l-1 36 -72 -2 -73 -2 0 -251
c0 -180 -3 -248 -11 -239 -6 7 -75 89 -155 182 -79 94 -154 181 -166 194 -12
14 -41 48 -65 77 -24 29 -46 53 -50 54 -5 0 -8 -24 -8 -52z"/>
<path d="M1525 2963 c-172 -38 -262 -171 -272 -403 -8 -187 31 -307 129 -395
27 -24 71 -51 98 -60 58 -19 168 -23 225 -7 94 27 177 106 217 208 24 60 28
85 33 190 12 241 -78 409 -244 458 -51 15 -140 19 -186 9z m155 -143 c78 -40
119 -148 114 -306 -5 -185 -75 -294 -192 -294 -124 0 -185 104 -186 315 0 123
17 193 62 247 50 59 131 74 202 38z"/>
<path d="M2135 2535 l0 -435 79 0 78 0 -4 250 c-2 138 -3 250 -2 250 1 0 10
-13 21 -29 17 -26 73 -94 151 -183 32 -35 35 -36 51 -20 20 19 157 185 184
222 10 14 15 20 13 14 -5 -10 -9 -307 -6 -471 l0 -33 75 0 75 0 0 436 c0 249
-4 434 -9 432 -5 -1 -58 -61 -117 -133 -60 -71 -116 -138 -125 -148 -10 -11
-35 -41 -56 -68 -21 -26 -42 -48 -48 -48 -5 -1 -35 29 -65 66 -30 36 -60 71
-65 77 -6 6 -44 51 -85 101 -96 115 -132 155 -139 155 -3 0 -6 -196 -6 -435z"/>
<path d="M4089 2941 c-1 -22 -1 -779 0 -815 l1 -28 163 4 c153 3 165 5 225 32
148 68 223 220 215 436 -5 146 -60 263 -150 320 -81 52 -130 62 -299 64 -134
2 -154 0 -155 -13z m335 -140 c65 -41 103 -121 109 -235 9 -142 -38 -258 -120
-304 -46 -25 -159 -38 -165 -18 -7 20 -3 571 4 582 11 17 131 0 172 -25z"/>
<path d="M1297 1893 c-58 -17 -82 -49 -73 -97 9 -46 45 -62 185 -81 161 -23
181 -33 167 -89 -8 -34 -62 -50 -168 -49 -98 0 -133 15 -151 64 -12 31 -37 40
-37 14 0 -31 30 -73 64 -89 77 -37 270 -21 309 25 35 43 19 98 -38 127 -19 9
-42 13 -162 28 -113 13 -150 34 -139 78 8 32 53 49 142 52 113 3 184 -22 184
-68 0 -11 7 -18 19 -18 15 0 18 5 13 23 -11 37 -25 53 -62 72 -45 23 -186 27
-253 8z"/>
<path d="M1875 1903 c-114 -24 -159 -78 -154 -184 5 -123 67 -170 221 -172 73
0 94 3 134 24 58 30 86 73 90 140 5 91 -29 152 -101 179 -31 12 -155 20 -190
13z m179 -42 c38 -15 76 -59 78 -91 8 -144 -39 -193 -190 -194 -129 0 -186 42
-191 143 -3 83 37 135 117 152 48 10 149 4 186 -10z"/>
<path d="M2401 1897 c-55 -13 -120 -74 -122 -114 -7 -130 11 -176 83 -210 83
-40 229 -36 295 10 28 18 63 70 63 91 0 19 -31 1 -49 -29 -27 -47 -77 -67
-166 -69 -136 -2 -196 43 -196 148 0 111 51 151 191 150 103 -1 154 -21 178
-71 18 -37 39 -39 34 -2 -3 30 -28 56 -75 81 -45 23 -169 31 -236 15z"/>
<path d="M3160 1900 c0 -4 -26 -55 -58 -112 -124 -218 -133 -238 -112 -238 12
0 25 13 36 35 l17 36 141 -3 141 -3 13 -28 c13 -27 37 -45 48 -35 2 3 -37 80
-88 173 -64 116 -100 170 -115 176 -13 5 -23 4 -23 -1z m140 -245 c0 -3 -54
-5 -120 -5 l-121 0 27 48 c14 26 42 75 61 110 l35 63 59 -106 c33 -58 59 -108
59 -110z"/>
<path d="M2850 1725 c0 -146 2 -175 14 -175 18 0 22 54 18 228 -3 98 -6 122
-18 122 -12 0 -14 -29 -14 -175z"/>
<path d="M3480 1725 l0 -175 159 0 c93 0 162 4 166 10 9 14 -29 19 -155 19
-63 -1 -121 0 -127 0 -10 1 -13 40 -13 161 0 136 -2 160 -15 160 -13 0 -15
-26 -15 -175z"/>
</g>
</svg>
